<?xml version="1.0" standalone="no"?><!DOCTYPE svg PUBLIC "-//W3C//DTD SVG 1.1//EN" "http://www.w3.org/Graphics/SVG/1.1/DTD/svg11.dtd"><svg class="icon" width="200px" height="200.00px" viewBox="0 0 1024 1024" version="1.1" xmlns="http://www.w3.org/2000/svg"><path fill="#515151" d="M511.33 980.22c-63.17 0-124.46-12.38-182.17-36.79-55.73-23.57-105.78-57.31-148.75-100.29-42.97-42.97-76.72-93.02-100.29-148.75-24.41-57.71-36.79-119-36.79-182.17 0-63.17 12.38-124.46 36.79-182.17 23.57-55.73 57.31-105.78 100.29-148.75 42.97-42.97 93.02-76.72 148.75-100.29 57.71-24.41 119-36.79 182.17-36.79 63.17 0 124.46 12.38 182.17 36.79 55.73 23.57 105.78 57.31 148.75 100.29 42.97 42.97 76.72 93.02 100.29 148.75 24.41 57.71 36.79 119 36.79 182.17 0 63.17-12.38 124.46-36.79 182.17-23.57 55.73-57.31 105.78-100.29 148.75-42.97 42.97-93.02 76.72-148.75 100.29-57.7 24.42-119 36.79-182.17 36.79z m0-896c-236 0-428 192-428 428s192 428 428 428 428-192 428-428-192-428-428-428z"  /><path fill="#515151" d="M474.26 605.77c-4.36-12.91-6.54-26.7-6.54-41.36 0-11.52 2.62-23.17 7.85-34.95 5.24-11.78 18.59-28.05 40.05-48.82 21.99-20.77 35.47-36.39 40.45-46.86s7.46-20.42 7.46-29.84c0-16.75-5.94-29.97-17.8-39.66-11.87-9.69-26.96-14.53-45.29-14.53-31.94 0-59.86 12.57-83.77 37.7v-53.67c29.14-18.15 59.42-27.23 90.84-27.23 32.11 0 57.89 8.12 77.36 24.35 19.46 16.23 29.19 38.4 29.19 66.49 0 13.44-2.88 27.09-8.64 40.97-5.76 13.87-20.77 32.33-45.03 55.37-18.32 17.28-30.63 30.8-36.91 40.58-6.28 9.78-9.42 20.33-9.42 31.68 0 12.74 3.05 26.01 9.16 39.79h-48.96z m-6.55 85.6c0-9.07 3.31-16.88 9.95-23.43 6.63-6.54 14.57-9.82 23.82-9.82s17.19 3.27 23.82 9.82c6.63 6.54 9.95 14.36 9.95 23.43 0 8.73-3.27 16.36-9.82 22.91-6.54 6.54-14.1 9.82-22.64 9.82-10.47 0-18.94-3.32-25.39-9.95-6.46-6.63-9.69-14.22-9.69-22.78z"  /></svg>